<?xml version="1.0" standalone="no"?>
<!DOCTYPE svg PUBLIC "-//W3C//DTD SVG 20010904//EN"
 "http://www.w3.org/TR/2001/REC-SVG-20010904/DTD/svg10.dtd">
<svg version="1.0" xmlns="http://www.w3.org/2000/svg"
 width="270.000000pt" height="270.000000pt" viewBox="0 0 270.000000 270.000000"
 preserveAspectRatio="xMidYMid meet">
<metadata>
Created by potrace 1.14, written by Peter Selinger 2001-2017
</metadata>
<g transform="translate(0.000000,270.000000) scale(0.100000,-0.100000)"
fill="#000000" stroke="none">
<path d="M0 1136 l0 -1136 1246 0 c1107 0 1244 2 1230 15 -8 8 -19 15 -25 15
-6 0 -11 7 -11 15 0 8 -6 15 -14 15 -8 0 -18 5 -22 12 -5 7 -2 9 7 4 8 -4 5
-1 -5 6 -11 7 -34 28 -52 46 -18 17 -35 32 -38 32 -3 0 -22 17 -42 37 -20 21
-40 37 -45 35 -5 -1 -8 3 -7 9 2 6 -5 16 -16 22 -10 7 -39 31 -64 54 -25 24
-48 43 -52 43 -4 0 -13 11 -20 25 -7 14 -18 25 -23 25 -5 0 -32 23 -61 51 -28
28 -63 58 -78 67 -16 9 -28 22 -28 30 0 7 -4 11 -9 8 -11 -7 -33 18 -24 27 3
4 -2 7 -12 7 -10 0 -15 3 -12 7 4 3 -12 19 -35 35 -24 15 -39 28 -35 28 5 0 2
7 -7 15 -8 8 -20 15 -26 15 -6 0 -8 4 -5 10 3 5 2 10 -4 10 -5 0 -31 21 -58
46 -26 25 -61 54 -78 65 -16 10 -25 19 -20 19 6 0 -2 8 -18 18 -15 10 -24 22
-20 25 3 4 1 7 -5 7 -7 0 -36 24 -66 53 -29 28 -80 76 -112 105 -33 29 -63 57
-69 63 -5 5 -19 18 -29 27 -11 9 -30 27 -43 40 -13 12 -28 22 -33 22 -6 0 -10
5 -10 10 0 6 -15 19 -32 30 -18 11 -29 20 -24 20 5 0 -12 16 -37 36 -26 20
-47 40 -47 44 0 4 -11 12 -25 18 -14 6 -25 16 -25 22 0 5 -9 19 -20 30 -11 11
-20 17 -20 14 0 -4 -9 5 -21 20 -11 14 -25 24 -30 21 -5 -4 -9 -1 -9 5 0 6 -7
18 -15 26 -8 9 -15 13 -15 10 0 -4 -32 24 -71 61 -121 115 -128 121 -134 115
-3 -3 -5 2 -5 11 0 10 -4 17 -9 17 -5 0 -23 12 -39 28 -16 15 -45 42 -66 61
-20 19 -36 38 -36 42 0 5 -6 9 -14 9 -8 0 -28 16 -45 35 -17 20 -31 32 -31 28
-1 -4 -7 3 -15 17 -8 14 -14 21 -15 17 0 -5 -20 12 -45 37 -24 25 -47 46 -49
46 -7 0 -86 72 -165 150 -31 30 -64 61 -74 69 -16 13 -17 -43 -17 -1123z"/>
</g>
</svg>
